<?xml version="1.0" encoding="UTF-8" standalone="no"?>
<svg
   viewBox="0 0 448 512"
   version="1.1"
   id="svg4"
   sodipodi:docname="user.svg"
   inkscape:version="1.2 (dc2aedaf03, 2022-05-15)"
   xmlns:inkscape="http://www.inkscape.org/namespaces/inkscape"
   xmlns:sodipodi="http://sodipodi.sourceforge.net/DTD/sodipodi-0.dtd"
   xmlns="http://www.w3.org/2000/svg"
   xmlns:svg="http://www.w3.org/2000/svg">
  <defs
     id="defs8" />
  <sodipodi:namedview
     id="namedview6"
     pagecolor="#ffffff"
     bordercolor="#666666"
     borderopacity="1.0"
     inkscape:showpageshadow="2"
     inkscape:pageopacity="0.0"
     inkscape:pagecheckerboard="0"
     inkscape:deskcolor="#d1d1d1"
     showgrid="false"
     inkscape:zoom="1.4511719"
     inkscape:cx="224.30148"
     inkscape:cy="256"
     inkscape:window-width="1920"
     inkscape:window-height="990"
     inkscape:window-x="0"
     inkscape:window-y="0"
     inkscape:window-maximized="1"
     inkscape:current-layer="svg4" />
  <!--! Font Awesome Pro 6.1.1 by @fontawesome - https://fontawesome.com License - https://fontawesome.com/license (Commercial License) Copyright 2022 Fonticons, Inc. -->
  <path
     d="M 272,304 H 176 C 78.8,304 0,382.8 0,480 c 0,17.67 14.33,32 32,32 h 384 c 17.67,0 32,-14.33 32,-32 0,-97.2 -78.8,-176 -176,-176 z M 48.99,464 C 56.89,400.9 110.8,352 176,352 h 96 c 65.16,0 119.1,48.95 127,112 z M 224,256 C 294.69,256 352,198.69 352,128 352,57.31 294.69,0 224,0 153.31,0 96,57.31 96,128 c 0,70.7 57.3,128 128,128 z m 0,-208 c 44.11,0 80,35.89 80,80 0,44.11 -35.89,80 -80,80 -44.11,0 -80,-35.9 -80,-80 0,-44.11 35.9,-80 80,-80 z"
     id="path2"
     style="fill:#ffffff" />
</svg>
